<svg width="247" height="247" viewBox="0 0 247 247" fill="none" xmlns="http://www.w3.org/2000/svg">
<circle cx="123.5" cy="123.5" r="119.5" fill="#950136" stroke="#950136" stroke-width="8"/>
<path d="M175.2 148L200.4 148L200.4 68.2L175.2 68.2C170.561 68.2 166.8 71.9611 166.8 76.6L166.8 139.6C166.8 144.239 170.561 148 175.2 148ZM183.6 76.6C188.239 76.6 192 80.3611 192 85C192 89.6389 188.239 93.4 183.6 93.4C178.961 93.4 175.2 89.6389 175.2 85C175.2 80.3611 178.961 76.6 183.6 76.6Z" fill="white"/>
<path d="M70.2085 137.823L76.691 141.557C79.2401 143.027 82.1318 143.8 85.0765 143.8L103.8 143.8C106.12 143.8 108 145.681 108 148L108 182.692C108 186.728 111.273 190 115.309 190L115.334 190C118.478 190 121.271 187.987 122.266 185.003L130.329 163.91C132.198 159.025 135.538 154.842 139.89 151.941L158.4 139.6L158.4 76.6L154.654 76.6C151.608 76.6 148.622 75.7726 146.01 74.2057L132.991 66.3943C130.379 64.8274 127.393 64 124.347 64L88.4008 64C84.7647 64 81.2293 65.1791 78.3214 67.3603L69.3593 74.0803C67.2452 75.6663 66.0004 78.1561 66.0004 80.8L66.0004 130.545C66.0004 133.549 67.604 136.324 70.2085 137.823Z" fill="white"/>
<rect x="195.4" y="97" width="22" height="22" transform="rotate(-180 195.4 97)" fill="white"/>
</svg>
