<svg width="110" height="110" viewBox="0 0 110 110" fill="none" xmlns="http://www.w3.org/2000/svg">
<g clip-path="url(#clip0)">
<path d="M104.472 9.03H82.4998V4.10467C82.4998 1.8378 80.662 0 78.3951 0C76.1283 0 74.2905 1.8378 74.2905 4.10467V9.03H35.7087V4.10467C35.7087 1.8378 33.8709 0 31.6041 0C29.3372 0 27.4994 1.8378 27.4994 4.10467V9.03H5.52655C3.25967 9.03 1.42188 10.8678 1.42188 13.1347V105.896C1.42188 108.162 3.25967 110 5.52655 110H104.472C106.739 110 108.577 108.162 108.577 105.896V13.1347C108.577 10.8675 106.739 9.03 104.472 9.03ZM9.63122 37.2143H100.367V40.3979L87.9801 43.6866L72.1905 39.4946C71.7305 39.3723 71.2467 39.3726 70.7862 39.4946L54.9971 43.6866L39.2089 39.4946C38.7484 39.3726 38.2646 39.3726 37.8043 39.4946L22.0167 43.6863L9.63094 40.3979V37.2143H9.63122ZM27.4994 17.2393V24.2167C27.4994 26.4836 29.3372 28.3214 31.6041 28.3214C33.8709 28.3214 35.7087 26.4836 35.7087 24.2167V17.2393H74.2905V24.2167C74.2905 26.4836 76.1283 28.3214 78.3951 28.3214C80.662 28.3214 82.4998 26.4836 82.4998 24.2167V17.2393H100.368V31.7414H9.63122V17.2393H27.4994ZM9.63122 101.791V46.0602L21.3148 49.1622C21.775 49.2842 22.2591 49.2842 22.7191 49.1622L38.5068 44.9705L54.2952 49.1622C54.5254 49.2232 54.7613 49.2539 54.9974 49.2539C55.2336 49.2539 55.4695 49.2232 55.6996 49.1622L71.4886 44.9702L87.2782 49.1622C87.7385 49.2842 88.2223 49.2842 88.6825 49.1622L100.368 46.0602V101.791H9.63122Z" fill="white"/>
<path d="M54.3844 55.1367H49.8693C48.3579 55.1367 47.1328 56.3618 47.1328 57.8732C47.1328 59.3845 48.3579 60.6096 49.8693 60.6096H54.3844C55.8957 60.6096 57.1208 59.3845 57.1208 57.8732C57.1208 56.3618 55.8957 55.1367 54.3844 55.1367Z" fill="white"/>
<path d="M66.013 55.1367H61.4982C59.9868 55.1367 58.7617 56.3618 58.7617 57.8732C58.7617 59.3845 59.9868 60.6096 61.4982 60.6096H66.013C67.5244 60.6096 68.7495 59.3845 68.7495 57.8732C68.7495 56.3618 67.5241 55.1367 66.013 55.1367Z" fill="white"/>
<path d="M83.39 55.1367H78.8751C77.3638 55.1367 76.1387 56.3618 76.1387 57.8732C76.1387 59.3845 77.3638 60.6096 78.8751 60.6096H83.39C84.9013 60.6096 86.1264 59.3845 86.1264 57.8732C86.1264 56.3618 84.9013 55.1367 83.39 55.1367Z" fill="white"/>
<path d="M95.0192 55.1367H90.504C88.9927 55.1367 87.7676 56.3618 87.7676 57.8732C87.7676 59.3845 88.9927 60.6096 90.504 60.6096H95.0192C96.5305 60.6096 97.7556 59.3845 97.7556 57.8732C97.7556 56.3618 96.5305 55.1367 95.0192 55.1367Z" fill="white"/>
<path d="M19.4957 64.2693H14.9806C13.4692 64.2693 12.2441 65.4944 12.2441 67.0057C12.2441 68.5171 13.4692 69.7422 14.9806 69.7422H19.4957C21.0071 69.7422 22.2322 68.5171 22.2322 67.0057C22.2322 65.4944 21.0071 64.2693 19.4957 64.2693Z" fill="white"/>
<path d="M31.1244 64.2693H26.6095C25.0982 64.2693 23.873 65.4944 23.873 67.0057C23.873 68.5171 25.0982 69.7422 26.6095 69.7422H31.1244C32.6357 69.7422 33.8608 68.5171 33.8608 67.0057C33.8608 65.4944 32.6357 64.2693 31.1244 64.2693Z" fill="white"/>
<path d="M42.7552 64.2693H38.2404C36.729 64.2693 35.5039 65.4944 35.5039 67.0057C35.5039 68.5171 36.729 69.7422 38.2404 69.7422H42.7552C44.2666 69.7422 45.4917 68.5171 45.4917 67.0057C45.4917 65.4944 44.2666 64.2693 42.7552 64.2693Z" fill="white"/>
<path d="M54.3844 64.2693H49.8693C48.3579 64.2693 47.1328 65.4944 47.1328 67.0057C47.1328 68.5171 48.3579 69.7422 49.8693 69.7422H54.3844C55.8957 69.7422 57.1208 68.5171 57.1208 67.0057C57.1208 65.4944 55.8957 64.2693 54.3844 64.2693Z" fill="white"/>
<path d="M66.013 64.2693H61.4982C59.9868 64.2693 58.7617 65.4944 58.7617 67.0057C58.7617 68.5171 59.9868 69.7422 61.4982 69.7422H66.013C67.5244 69.7422 68.7495 68.5171 68.7495 67.0057C68.7495 65.4944 67.5241 64.2693 66.013 64.2693Z" fill="white"/>
<path d="M83.39 64.2693H78.8751C77.3638 64.2693 76.1387 65.4944 76.1387 67.0057C76.1387 68.5171 77.3638 69.7422 78.8751 69.7422H83.39C84.9013 69.7422 86.1264 68.5171 86.1264 67.0057C86.1264 65.4944 84.9013 64.2693 83.39 64.2693Z" fill="white"/>
<path d="M95.0192 64.2693H90.504C88.9927 64.2693 87.7676 65.4944 87.7676 67.0057C87.7676 68.5171 88.9927 69.7422 90.504 69.7422H95.0192C96.5305 69.7422 97.7556 68.5171 97.7556 67.0057C97.7556 65.4944 96.5305 64.2693 95.0192 64.2693Z" fill="white"/>
<path d="M19.4957 73.4016H14.9806C13.4692 73.4016 12.2441 74.6267 12.2441 76.1381C12.2441 77.6494 13.4692 78.8745 14.9806 78.8745H19.4957C21.0071 78.8745 22.2322 77.6494 22.2322 76.1381C22.2322 74.6267 21.0071 73.4016 19.4957 73.4016Z" fill="white"/>
<path d="M31.1244 73.4016H26.6095C25.0982 73.4016 23.873 74.6267 23.873 76.1381C23.873 77.6494 25.0982 78.8745 26.6095 78.8745H31.1244C32.6357 78.8745 33.8608 77.6494 33.8608 76.1381C33.8608 74.6267 32.6357 73.4016 31.1244 73.4016Z" fill="white"/>
<path d="M42.7552 73.4016H38.2404C36.729 73.4016 35.5039 74.6267 35.5039 76.1381C35.5039 77.6494 36.729 78.8745 38.2404 78.8745H42.7552C44.2666 78.8745 45.4917 77.6494 45.4917 76.1381C45.4917 74.6267 44.2666 73.4016 42.7552 73.4016Z" fill="white"/>
<path d="M54.3844 73.4016H49.8693C48.3579 73.4016 47.1328 74.6267 47.1328 76.1381C47.1328 77.6494 48.3579 78.8745 49.8693 78.8745H54.3844C55.8957 78.8745 57.1208 77.6494 57.1208 76.1381C57.1208 74.6267 55.8957 73.4016 54.3844 73.4016Z" fill="white"/>
<path d="M66.013 73.4016H61.4982C59.9868 73.4016 58.7617 74.6267 58.7617 76.1381C58.7617 77.6494 59.9868 78.8745 61.4982 78.8745H66.013C67.5244 78.8745 68.7495 77.6494 68.7495 76.1381C68.7495 74.6267 67.5241 73.4016 66.013 73.4016Z" fill="white"/>
<path d="M83.39 73.4016H78.8751C77.3638 73.4016 76.1387 74.6267 76.1387 76.1381C76.1387 77.6494 77.3638 78.8745 78.8751 78.8745H83.39C84.9013 78.8745 86.1264 77.6494 86.1264 76.1381C86.1264 74.6267 84.9013 73.4016 83.39 73.4016Z" fill="white"/>
<path d="M95.0192 73.4016H90.504C88.9927 73.4016 87.7676 74.6267 87.7676 76.1381C87.7676 77.6494 88.9927 78.8745 90.504 78.8745H95.0192C96.5305 78.8745 97.7556 77.6494 97.7556 76.1381C97.7556 74.6267 96.5305 73.4016 95.0192 73.4016Z" fill="white"/>
<path d="M19.4957 82.5341H14.9806C13.4692 82.5341 12.2441 83.7592 12.2441 85.2705C12.2441 86.7818 13.4692 88.0069 14.9806 88.0069H19.4957C21.0071 88.0069 22.2322 86.7818 22.2322 85.2705C22.2322 83.7592 21.0071 82.5341 19.4957 82.5341Z" fill="white"/>
<path d="M31.1244 82.5341H26.6095C25.0982 82.5341 23.873 83.7592 23.873 85.2705C23.873 86.7818 25.0982 88.0069 26.6095 88.0069H31.1244C32.6357 88.0069 33.8608 86.7818 33.8608 85.2705C33.8608 83.7592 32.6357 82.5341 31.1244 82.5341Z" fill="white"/>
<path d="M42.7552 82.5341H38.2404C36.729 82.5341 35.5039 83.7592 35.5039 85.2705C35.5039 86.7818 36.729 88.0069 38.2404 88.0069H42.7552C44.2666 88.0069 45.4917 86.7818 45.4917 85.2705C45.4917 83.7592 44.2666 82.5341 42.7552 82.5341Z" fill="white"/>
<path d="M54.3844 82.5341H49.8693C48.3579 82.5341 47.1328 83.7592 47.1328 85.2705C47.1328 86.7818 48.3579 88.0069 49.8693 88.0069H54.3844C55.8957 88.0069 57.1208 86.7818 57.1208 85.2705C57.1208 83.7592 55.8957 82.5341 54.3844 82.5341Z" fill="white"/>
<path d="M66.013 82.5341H61.4982C59.9868 82.5341 58.7617 83.7592 58.7617 85.2705C58.7617 86.7818 59.9868 88.0069 61.4982 88.0069H66.013C67.5244 88.0069 68.7495 86.7818 68.7495 85.2705C68.7495 83.7592 67.5241 82.5341 66.013 82.5341Z" fill="white"/>
<path d="M83.39 82.5341H78.8751C77.3638 82.5341 76.1387 83.7592 76.1387 85.2705C76.1387 86.7818 77.3638 88.0069 78.8751 88.0069H83.39C84.9013 88.0069 86.1264 86.7818 86.1264 85.2705C86.1264 83.7592 84.9013 82.5341 83.39 82.5341Z" fill="white"/>
<path d="M95.0192 82.5341H90.504C88.9927 82.5341 87.7676 83.7592 87.7676 85.2705C87.7676 86.7818 88.9927 88.0069 90.504 88.0069H95.0192C96.5305 88.0069 97.7556 86.7818 97.7556 85.2705C97.7556 83.7592 96.5305 82.5341 95.0192 82.5341Z" fill="white"/>
<path d="M19.4957 91.6664H14.9806C13.4692 91.6664 12.2441 92.8915 12.2441 94.4028C12.2441 95.9142 13.4692 97.1393 14.9806 97.1393H19.4957C21.0071 97.1393 22.2322 95.9142 22.2322 94.4028C22.2322 92.8915 21.0071 91.6664 19.4957 91.6664Z" fill="white"/>
<path d="M31.1244 91.6664H26.6095C25.0982 91.6664 23.873 92.8915 23.873 94.4028C23.873 95.9142 25.0982 97.1393 26.6095 97.1393H31.1244C32.6357 97.1393 33.8608 95.9142 33.8608 94.4028C33.8608 92.8915 32.6357 91.6664 31.1244 91.6664Z" fill="white"/>
<path d="M42.7552 91.6664H38.2404C36.729 91.6664 35.5039 92.8915 35.5039 94.4028C35.5039 95.9142 36.729 97.1393 38.2404 97.1393H42.7552C44.2666 97.1393 45.4917 95.9142 45.4917 94.4028C45.4917 92.8915 44.2666 91.6664 42.7552 91.6664Z" fill="white"/>
<path d="M54.3844 91.6664H49.8693C48.3579 91.6664 47.1328 92.8915 47.1328 94.4028C47.1328 95.9142 48.3579 97.1393 49.8693 97.1393H54.3844C55.8957 97.1393 57.1208 95.9142 57.1208 94.4028C57.1208 92.8915 55.8957 91.6664 54.3844 91.6664Z" fill="white"/>
</g>
<defs>
<clipPath id="clip0">
<rect width="110" height="110" fill="white"/>
</clipPath>
</defs>
</svg>
