<svg width="24" height="24" viewBox="0 0 24 24" fill="none" xmlns="http://www.w3.org/2000/svg">
<g id="color_lens_24px">
<path id="icon/image/color_lens_24px" fill-rule="evenodd" clip-rule="evenodd" d="M3 12C3 17.51 7.49 22 13 22C14.38 22 15.5 20.88 15.5 19.5C15.5 18.89 15.27 18.3 14.86 17.83C14.78 17.73 14.73 17.62 14.73 17.5C14.73 17.22 14.95 17 15.23 17H17C20.31 17 23 14.31 23 11C23 6.04 18.51 2 13 2C7.49 2 3 6.49 3 12ZM5 12C5 7.59 8.59 4 13 4C17.41 4 21 7.14 21 11C21 13.21 19.21 15 17 15H15.23C13.85 15 12.73 16.12 12.73 17.5C12.73 18.1 12.95 18.69 13.36 19.15C13.42 19.22 13.5 19.34 13.5 19.5C13.5 19.78 13.28 20 13 20C8.59 20 5 16.41 5 12ZM7.5 10C6.67157 10 6 10.6716 6 11.5C6 12.3284 6.67157 13 7.5 13C8.32843 13 9 12.3284 9 11.5C9 10.6716 8.32843 10 7.5 10ZM9 7.5C9 6.67157 9.67157 6 10.5 6C11.3284 6 12 6.67157 12 7.5C12 8.32843 11.3284 9 10.5 9C9.67157 9 9 8.32843 9 7.5ZM15.5 6C14.6716 6 14 6.67157 14 7.5C14 8.32843 14.6716 9 15.5 9C16.3284 9 17 8.32843 17 7.5C17 6.67157 16.3284 6 15.5 6ZM17 11.5C17 10.6716 17.6716 10 18.5 10C19.3284 10 20 10.6716 20 11.5C20 12.3284 19.3284 13 18.5 13C17.6716 13 17 12.3284 17 11.5Z" fill="white"/>
</g>
</svg>
