<svg width="24" height="24" viewBox="0 0 24 24" fill="none" xmlns="http://www.w3.org/2000/svg">
<path d="M18.1401 3.11316C17.5037 3.11316 6.56253 3.11316 5.86101 3.11316L2 8.23598L12 21.1132L22 8.2345L18.1401 3.11316ZM7.39567 8.94854L10.26 16.8L4.33356 8.94854H7.39567ZM9 8.94854H15L12 18.1132L9 8.94854ZM16.5636 8.94854H19.7148L13.6584 16.8L16.5636 8.94854ZM17.2809 4.25028L19.7148 7.55166H16.5636L15.3638 4.25028H17.2809ZM13.7571 4.25028L15 7.55166H9L10.1422 4.25028H13.7571ZM6.66785 4.25028H8.63726L7.39567 7.55166H4.33356L6.66785 4.25028Z" fill="white"/>
</svg>
