<svg width="103" height="110" viewBox="0 0 103 110" fill="none" xmlns="http://www.w3.org/2000/svg">
<path d="M37.4182 70.2308L36.6355 77.6235C36.5723 78.22 36.7652 78.8152 37.1666 79.2611C37.5677 79.7071 38.1394 79.9615 38.7394 79.9615H61.1074C61.7071 79.9615 62.2788 79.7068 62.6802 79.2611C63.0813 78.8152 63.2742 78.22 63.2113 77.6235L62.4286 70.2308H90.2901C94.6266 70.2308 98.1544 66.703 98.1544 62.3666V7.86426C98.1541 3.52779 94.626 0 90.2899 0H7.86426C3.52779 0 0 3.52779 0 7.86426V62.3666C0 66.703 3.52779 70.2308 7.86426 70.2308H37.4182ZM58.7558 75.7308H41.0904L41.6726 70.2308H58.1734L58.7558 75.7308ZM7.86426 4.23098H90.2899C92.2934 4.23098 93.9231 5.86075 93.9231 7.86426V55.8461H4.23098V7.86426C4.23098 5.86075 5.86075 4.23098 7.86426 4.23098ZM4.23098 62.3666V60.077H93.9229V62.3666C93.9229 64.3701 92.2931 65.9998 90.2896 65.9998H7.86426C5.86075 65.9998 4.23098 64.3701 4.23098 62.3666Z" fill="white"/>
<path d="M90.2313 94.1747C90.6149 93.5429 90.6411 92.7568 90.3001 92.101L86.1219 84.0624C85.7577 83.3621 85.0342 82.9226 84.2447 82.9226H13.909C13.1198 82.9226 12.396 83.3621 12.0318 84.0624L7.85361 92.101C7.51288 92.7568 7.53883 93.5429 7.92244 94.1747C8.30605 94.8066 8.99175 95.1922 9.73076 95.1922H88.423C89.162 95.1924 89.8477 94.8066 90.2313 94.1747ZM13.2145 90.9615L15.1935 87.1539H82.9599L84.9392 90.9615H13.2145Z" fill="white"/>
<path d="M93.9238 98.9998H90.5391C85.6402 98.9998 81.6543 102.985 81.6543 107.885C81.6543 109.053 82.6015 110 83.7698 110H100.693C101.861 110 102.808 109.053 102.808 107.885C102.809 102.986 98.823 98.9998 93.9238 98.9998ZM86.3947 105.769C87.1661 104.264 88.7344 103.231 90.5391 103.231H93.9238C95.7285 103.231 97.2968 104.264 98.0685 105.769H86.3947Z" fill="white"/>
</svg>
