<svg width="438" height="382" viewBox="0 0 438 382" fill="none" xmlns="http://www.w3.org/2000/svg">
<g clip-path="url(#clip0)">
<rect x="5" y="325" width="428" height="52" fill="white" stroke="black" stroke-width="10"/>
<rect x="57" y="276" width="30" height="44" fill="black"/>
<rect x="37" y="251" width="70" height="25" fill="black"/>
<rect x="65.687" y="155.355" width="70" height="43.3773" transform="rotate(25 65.687 155.355)" fill="white" stroke="black" stroke-width="10"/>
<rect x="106.566" y="69.6669" width="67.8001" height="70.8693" transform="rotate(25 106.566 69.6669)" fill="white" stroke="black" stroke-width="10"/>
<rect x="93.3101" y="141.609" width="34" height="23.7734" transform="rotate(25 93.3101 141.609)" fill="white" stroke="black" stroke-width="10"/>
<rect x="159.025" y="117.877" width="74.7685" height="27.6117" transform="rotate(25 159.025 117.877)" fill="white" stroke="black" stroke-width="10"/>
<rect x="231.732" y="139.261" width="219.524" height="46.5832" transform="rotate(25 231.732 139.261)" fill="white" stroke="black" stroke-width="10"/>
<rect x="135.551" y="77.6658" width="10.98" height="11" transform="rotate(25 135.551 77.6658)" fill="white"/>
<rect x="156.934" y="13.7102" width="26" height="67" transform="rotate(25 156.934 13.7102)" fill="white"/>
<rect x="168.893" y="9.35693" width="24" height="19" transform="rotate(25 168.893 9.35693)" fill="white"/>
<rect x="182.244" y="6.75537" width="17" height="12" transform="rotate(25 182.244 6.75537)" fill="white"/>
<rect x="100.1" y="138.902" width="23.9893" height="11.164" transform="rotate(25 100.1 138.902)" fill="white"/>
<rect x="126.57" y="73.2449" width="10" height="10" transform="rotate(25 126.57 73.2449)" fill="black"/>
<rect x="145.602" y="82.1199" width="10" height="10" transform="rotate(25 145.602 82.1199)" fill="black"/>
<rect x="142.201" y="23.1587" width="10" height="27" transform="rotate(25 142.201 23.1587)" fill="black"/>
<rect x="152.65" y="12.5835" width="10" height="10" transform="rotate(25 152.65 12.5835)" fill="black"/>
<rect x="165.939" y="7.74658" width="10" height="10" transform="rotate(25 165.939 7.74658)" fill="black"/>
<rect x="159.295" y="10.165" width="10" height="10" transform="rotate(25 159.295 10.165)" fill="black"/>
<rect x="146.006" y="15.002" width="10" height="10" transform="rotate(25 146.006 15.002)" fill="black"/>
<rect x="204.844" y="7.13086" width="10" height="10" transform="rotate(25 204.844 7.13086)" fill="black"/>
<rect x="176.459" y="32.5125" width="10" height="33" transform="rotate(25 176.459 32.5125)" fill="black"/>
<rect x="190.35" y="16.9219" width="10" height="10" transform="rotate(25 190.35 16.9219)" fill="black"/>
<rect x="198.199" y="9.54932" width="10" height="10" transform="rotate(25 198.199 9.54932)" fill="black"/>
<rect x="183.404" y="24.7173" width="10" height="10" transform="rotate(25 183.404 24.7173)" fill="black"/>
<rect x="137.436" y="45.2104" width="10" height="10" transform="rotate(25 137.436 45.2104)" fill="black"/>
<rect x="135.021" y="55.1189" width="10" height="10" transform="rotate(25 135.021 55.1189)" fill="black"/>
<rect x="130.797" y="64.1819" width="10" height="10" transform="rotate(25 130.797 64.1819)" fill="black"/>
<rect x="154.055" y="63.9939" width="10" height="10" transform="rotate(25 154.055 63.9939)" fill="black"/>
<rect x="149.828" y="73.0569" width="10" height="10" transform="rotate(25 149.828 73.0569)" fill="black"/>
<rect x="160.094" y="55.7759" width="10" height="10" transform="rotate(25 160.094 55.7759)" fill="black"/>
<rect x="195.781" y="2.90479" width="10" height="10" transform="rotate(25 195.781 2.90479)" fill="black"/>
<rect x="185.873" y="0.491211" width="10" height="10" transform="rotate(25 185.873 0.491211)" fill="black"/>
<rect x="179.229" y="2.90967" width="10" height="10" transform="rotate(25 179.229 2.90967)" fill="black"/>
<rect x="172.584" y="5.32812" width="10" height="10" transform="rotate(25 172.584 5.32812)" fill="black"/>
<rect x="67" y="266" width="10" height="54" fill="white"/>
<rect x="67" y="266" width="10" height="54" fill="white"/>
<rect x="67" y="266" width="10" height="54" fill="white"/>
<rect x="47" y="261" width="50" height="5" fill="white"/>
<rect x="47" y="261" width="50" height="5" fill="white"/>
<rect x="47" y="261" width="50" height="5" fill="white"/>
</g>
<defs>
<clipPath id="clip0">
<rect width="438" height="382" fill="white"/>
</clipPath>
</defs>
</svg>
