<svg width="438" height="382" viewBox="0 0 438 382" fill="none" xmlns="http://www.w3.org/2000/svg">
<g clip-path="url(#clip0)">
<rect x="5" y="325" width="428" height="52" fill="white" stroke="black" stroke-width="10"/>
<rect x="53.166" y="263.936" width="70" height="43.3773" fill="white" stroke="black" stroke-width="10"/>
<rect x="54" y="169" width="67.8001" height="70.8693" fill="white" stroke="black" stroke-width="10"/>
<rect x="72.3906" y="239.803" width="34" height="23.7734" fill="white" stroke="black" stroke-width="10"/>
<rect x="121.918" y="190.523" width="74.7685" height="27.6117" fill="white" stroke="black" stroke-width="10"/>
<rect x="196.852" y="179.176" width="219.524" height="46.5832" fill="white" stroke="black" stroke-width="10"/>
<rect x="83.6504" y="164" width="10.98" height="11" fill="white"/>
<rect x="76" y="97" width="26" height="67" fill="white"/>
<rect x="85" y="88" width="24" height="19" fill="white"/>
<rect x="96" y="80" width="17" height="12" fill="white"/>
<rect x="77.4004" y="234.481" width="23.9893" height="11.164" fill="white"/>
<rect x="73.6426" y="163.789" width="10" height="10" fill="black"/>
<rect x="94.6426" y="163.789" width="10" height="10" fill="black"/>
<rect x="66.6426" y="111.789" width="10" height="27" fill="black"/>
<rect x="71.6426" y="97.7886" width="10" height="10" fill="black"/>
<rect x="81.6426" y="87.7886" width="10" height="10" fill="black"/>
<rect x="76.6426" y="92.7886" width="10" height="10" fill="black"/>
<rect x="66.6426" y="102.789" width="10" height="10" fill="black"/>
<rect x="116.643" y="70.7886" width="10" height="10" fill="black"/>
<rect x="101.643" y="105.789" width="10" height="33" fill="black"/>
<rect x="107.643" y="85.7886" width="10" height="10" fill="black"/>
<rect x="111.643" y="75.7886" width="10" height="10" fill="black"/>
<rect x="104.643" y="95.7886" width="10" height="10" fill="black"/>
<rect x="71.6426" y="133.789" width="10" height="10" fill="black"/>
<rect x="73.6426" y="143.789" width="10" height="10" fill="black"/>
<rect x="73.6426" y="153.789" width="10" height="10" fill="black"/>
<rect x="94.6426" y="143.789" width="10" height="10" fill="black"/>
<rect x="94.6426" y="153.789" width="10" height="10" fill="black"/>
<rect x="96.6426" y="133.789" width="10" height="10" fill="black"/>
<rect x="106.643" y="70.7886" width="10" height="10" fill="black"/>
<rect x="96.6426" y="72.7886" width="10" height="10" fill="black"/>
<rect x="91.6426" y="77.7886" width="10" height="10" fill="black"/>
<rect x="86.6426" y="82.7886" width="10" height="10" fill="black"/>
</g>
<defs>
<clipPath id="clip0">
<rect width="438" height="382" fill="white"/>
</clipPath>
</defs>
</svg>
