<svg width="110" height="110" viewBox="0 0 110 110" fill="none" xmlns="http://www.w3.org/2000/svg">
<path d="M88.7583 66.1877C88.4396 65.7798 86.6646 63.7147 83.1107 62.3585C80.0038 61.3971 72.3366 58.856 68.1006 55.815C68.3783 55.4484 68.6504 55.0701 68.9142 54.6776C72.3901 49.506 74.304 42.548 74.304 35.0842C74.304 33.8563 74.2606 32.7038 74.1814 31.613C81.8706 30.0747 86.8408 27.6353 86.8408 24.8887C86.8408 21.7433 80.3234 19.0008 70.6676 17.5539C70.4286 15.9943 70.2654 14.2661 70.2654 12.4445C70.2654 5.57171 68.2255 0 62.5131 0C56.0146 0 57.36 7.67419 54.9989 7.95596C52.6381 7.67419 53.9833 0 47.4848 0C41.7726 0 39.7325 5.57171 39.7325 12.4445C39.7325 14.2661 39.5693 15.9947 39.3303 17.5539C29.6743 19.0008 23.1571 21.7433 23.1571 24.8887C23.1571 27.6353 28.127 30.0747 35.8165 31.613C35.7373 32.7038 35.6936 33.8563 35.6936 35.0842C35.6936 42.5478 37.6077 49.5058 41.0835 54.6776C41.3473 55.0703 41.6191 55.4484 41.8973 55.815C37.6611 58.856 29.9936 61.3971 26.8872 62.3585C23.3331 63.7141 21.5583 65.7796 21.2392 66.1877C14.7033 75.8907 13.9629 97.66 13.957 97.8762C14.0155 100.773 14.8759 101.763 15.173 101.885C29.5802 108.295 46.5125 109.968 54.9989 110C63.4854 109.968 80.4177 108.295 94.8246 101.885C95.1217 101.762 95.9821 100.773 96.0404 97.876C96.0348 97.66 95.2946 75.8907 88.7583 66.1877ZM37.9714 19.5504C37.93 19.6969 37.9082 19.8457 37.9082 19.9958C37.9082 22.8628 45.5599 25.1869 54.9989 25.1869C64.438 25.1869 72.0897 22.8628 72.0897 19.9958C72.0897 19.8454 72.0676 19.6969 72.0265 19.5504C73.314 20.3293 74.0391 21.2091 74.0391 22.1408C74.0391 25.3346 65.5147 27.9243 54.9987 27.9243C44.4827 27.9243 35.9581 25.3346 35.9581 22.1408C35.9583 21.2091 36.6843 20.3293 37.9714 19.5504ZM38.3457 35.0844C38.3457 34.0355 38.3765 33.0364 38.4373 32.0851C43.2627 32.864 48.9326 33.3128 54.9989 33.3128C61.0656 33.3128 66.7349 32.864 71.5604 32.0851C71.6214 33.0367 71.6522 34.0355 71.6522 35.0844C71.6522 49.2459 64.337 60.3384 54.9987 60.3384C45.6607 60.3384 38.3457 49.2459 38.3457 35.0844Z" fill="white"/>
<path d="M53.938 36.7535H56.0596C56.3733 40.8635 59.7131 44.0991 63.7898 44.0991C67.8667 44.0991 71.2065 40.8635 71.5205 36.7535H71.5227V36.7222C71.5367 36.5232 71.5463 36.3236 71.5463 36.1204H71.5227V34.9447H38.4512V36.7533H38.4775C38.7912 40.8632 42.1311 44.0989 46.2077 44.0989C50.2844 44.0989 53.6245 40.8635 53.938 36.7535Z" fill="white"/>
</svg>
