<svg width="156" height="156" viewBox="0 0 156 156" fill="none" xmlns="http://www.w3.org/2000/svg">
<path d="M126.082 89.5388C125.63 88.9605 123.113 86.0318 118.072 84.1085C113.666 82.745 102.793 79.1412 96.7854 74.8286C97.1793 74.3087 97.5651 73.7721 97.9392 73.2155C102.869 65.8813 105.583 56.0135 105.583 45.4285C105.583 43.6871 105.521 42.0527 105.409 40.5056C116.314 38.3241 123.362 34.8646 123.362 30.9695C123.362 26.5087 114.12 22.6193 100.426 20.5674C100.087 18.3555 99.8555 15.9046 99.8555 13.3213C99.8555 3.57443 97.2457 0 89.1445 0C84.1445 0 85.1442 2.717 78.2046 4.67273C70.9059 2.88973 71 0 67.1445 0C59.0437 0 56.5543 3.57443 56.5543 13.3213C56.5543 15.9046 56.3229 18.3562 55.9839 20.5674C42.2899 22.6193 33.0474 26.5087 33.0474 30.9695C33.0474 34.8646 40.0956 38.3241 51.0007 40.5056C50.8884 42.0527 50.8264 43.6871 50.8264 45.4285C50.8264 56.0132 53.541 65.881 58.4703 73.2155C58.8443 73.7725 59.2299 74.3087 59.6244 74.8286C53.6166 79.1412 42.7428 82.745 38.3373 84.1085C33.297 86.0308 30.78 88.9602 30.3274 89.5388C21.0584 103.3 20.0083 134.172 20 134.479C20.083 138.587 21.3032 139.991 21.7245 140.164C42.1565 149.254 66.1696 151.627 78.2049 151.673C90.2402 151.627 114.253 149.255 134.685 140.164C135.106 139.99 136.326 138.587 136.409 134.479C136.401 134.172 135.351 103.3 126.082 89.5388ZM54.0568 23.3988C53.998 23.6065 53.9671 23.8175 53.9671 24.0304C53.9671 28.0963 64.8186 31.3924 78.2049 31.3924C91.5912 31.3924 102.443 28.0963 102.443 24.0304C102.443 23.8172 102.411 23.6065 102.353 23.3988C104.179 24.5034 105.207 25.751 105.207 27.0724C105.207 31.6017 93.1181 35.2744 78.2046 35.2744C63.291 35.2744 51.2015 31.6017 51.2015 27.0724C51.2018 25.751 52.2314 24.5034 54.0568 23.3988ZM54.5876 45.4289C54.5876 43.9412 54.6313 42.5244 54.7175 41.1753C61.5608 42.2799 69.6017 42.9163 78.2049 42.9163C86.8084 42.9163 94.8487 42.2799 101.692 41.1753C101.779 42.5247 101.822 43.9412 101.822 45.4289C101.822 65.5123 91.4479 81.2436 78.2046 81.2436C64.9615 81.2436 54.5876 65.5123 54.5876 45.4289Z" fill="white"/>
<path d="M77.0576 48.5686H79.9424C80.369 54.4051 84.9102 59 90.4533 59C95.9967 59 100.538 54.4051 100.965 48.5686H100.968V48.5242C100.987 48.2417 101 47.9582 101 47.6696H100.968V46H56V48.5683H56.0358C56.4624 54.4048 61.0036 58.9997 66.5467 58.9997C72.0898 58.9997 76.6313 54.4051 77.0576 48.5686Z" fill="white"/>
</svg>
