<svg width="110" height="110" viewBox="0 0 110 110" fill="none" xmlns="http://www.w3.org/2000/svg">
<path d="M98.25 50.125V44.9688C98.25 44.5129 98.0689 44.0757 97.7466 43.7534C97.4243 43.4311 96.9871 43.25 96.5312 43.25V36.375C96.5301 35.4637 96.1675 34.59 95.5231 33.9456C94.8787 33.3012 94.0051 32.9387 93.0938 32.9375H92.9455C91.0215 26.9332 87.6919 21.4749 83.2335 17.0165C78.7751 12.5581 73.3168 9.22852 67.3125 7.30449V3.71875C67.3125 3.26291 67.1314 2.82574 66.8091 2.50341C66.4868 2.18108 66.0496 2 65.5938 2H44.9688C44.5129 2 44.0757 2.18108 43.7534 2.50341C43.4311 2.82574 43.25 3.26291 43.25 3.71875V7.30449C37.2457 9.22852 31.7874 12.5581 27.329 17.0165C22.8706 21.4749 19.541 26.9332 17.617 32.9375H17.4688C16.5574 32.9387 15.6838 33.3012 15.0394 33.9456C14.395 34.59 14.0324 35.4637 14.0312 36.375V43.25C13.5754 43.25 13.1382 43.4311 12.8159 43.7534C12.4936 44.0757 12.3125 44.5129 12.3125 44.9688V50.125C9.57835 50.1279 6.95701 51.2153 5.02366 53.1487C3.09032 55.082 2.0029 57.7033 2 60.4375V81.0625C2.0029 83.7967 3.09032 86.418 5.02366 88.3513C6.95701 90.2847 9.57835 91.3721 12.3125 91.375H24.3438C24.7996 91.375 25.2368 91.1939 25.5591 90.8716C25.8814 90.5493 26.0625 90.1121 26.0625 89.6562V86.2188H26.9219C28.5168 86.217 30.0459 85.5826 31.1736 84.4549C32.3014 83.3271 32.9357 81.798 32.9375 80.2031V61.2969C32.9357 59.702 32.3014 58.1729 31.1736 57.0451C30.0459 55.9174 28.5168 55.283 26.9219 55.2812H26.0625V44.9688C26.0625 44.5129 25.8814 44.0757 25.5591 43.7534C25.2368 43.4311 24.7996 43.25 24.3438 43.25H22.625V34.6562C22.6248 34.2572 22.4858 33.8707 22.2317 33.563C21.9777 33.2553 21.6246 33.0455 21.2328 32.9697C23.0429 27.8893 25.9605 23.2752 29.7741 19.4616C33.5877 15.648 38.2018 12.7304 43.2822 10.9203C43.358 11.3121 43.5678 11.6652 43.8755 11.9192C44.1832 12.1733 44.5697 12.3123 44.9688 12.3125H65.5938C65.9928 12.3123 66.3793 12.1733 66.687 11.9192C66.9947 11.6652 67.2045 11.3121 67.2803 10.9203C72.3607 12.7304 76.9748 15.648 80.7884 19.4616C84.602 23.2752 87.5196 27.8893 89.3297 32.9697C88.9379 33.0455 88.5848 33.2553 88.3308 33.563C88.0768 33.8707 87.9377 34.2572 87.9375 34.6562V43.25H86.2188C85.7629 43.25 85.3257 43.4311 85.0034 43.7534C84.6811 44.0757 84.5 44.5129 84.5 44.9688V55.2812H83.6406C82.0457 55.283 80.5167 55.9174 79.3889 57.0451C78.2611 58.1729 77.6268 59.702 77.625 61.2969V80.2031C77.6268 81.798 78.2611 83.3271 79.3889 84.4549C80.5167 85.5826 82.0457 86.217 83.6406 86.2188H84.5V89.6562C84.5 90.1121 84.6811 90.5493 85.0034 90.8716C85.3257 91.1939 85.7629 91.375 86.2188 91.375H91.375V94.8125C91.373 96.6352 90.648 98.3827 89.3591 99.6716C88.0702 100.96 86.3227 101.685 84.5 101.688H67.016C66.6598 100.683 66.0015 99.8133 65.1314 99.1979C64.2613 98.5824 63.222 98.2513 62.1562 98.25H48.4062C47.0387 98.25 45.7272 98.7933 44.7602 99.7602C43.7932 100.727 43.25 102.039 43.25 103.406C43.25 104.774 43.7932 106.085 44.7602 107.052C45.7272 108.019 47.0387 108.562 48.4062 108.562H62.1562C63.222 108.561 64.2613 108.23 65.1314 107.615C66.0015 106.999 66.6598 106.13 67.016 105.125H84.5C87.2342 105.122 89.8555 104.035 91.7888 102.101C93.7222 100.168 94.8096 97.5467 94.8125 94.8125V91.375H98.25C100.984 91.3721 103.605 90.2847 105.539 88.3513C107.472 86.418 108.56 83.7967 108.562 81.0625V60.4375C108.56 57.7033 107.472 55.082 105.539 53.1487C103.605 51.2153 100.984 50.1279 98.25 50.125ZM26.0625 58.7188H26.9219C27.6055 58.7193 28.2609 58.9911 28.7443 59.4745C29.2276 59.9579 29.4994 60.6133 29.5 61.2969V80.2031C29.4994 80.8867 29.2276 81.5421 28.7443 82.0255C28.2609 82.5089 27.6055 82.7807 26.9219 82.7812H26.0625V58.7188ZM17.4688 36.375H19.1875V43.25H17.4688V36.375ZM22.625 87.9375H12.3125C10.4898 87.9355 8.74227 87.2105 7.4534 85.9216C6.16453 84.6327 5.43955 82.8852 5.4375 81.0625V60.4375C5.43955 58.6148 6.16453 56.8673 7.4534 55.5784C8.74227 54.2895 10.4898 53.5645 12.3125 53.5625H22.625V87.9375ZM22.625 46.6875V50.125H15.75V46.6875H22.625ZM63.875 8.875H46.6875V5.4375H63.875V8.875ZM84.5 82.7812H83.6406C82.957 82.7807 82.3016 82.5089 81.8182 82.0255C81.3349 81.5421 81.0631 80.8867 81.0625 80.2031V61.2969C81.0631 60.6133 81.3349 59.9579 81.8182 59.4745C82.3016 58.9911 82.957 58.7193 83.6406 58.7188H84.5V82.7812ZM63.8514 103.679C63.7866 104.082 63.5804 104.449 63.2698 104.714C62.9592 104.979 62.5645 105.125 62.1562 105.125H48.4062C47.9504 105.125 47.5132 104.944 47.1909 104.622C46.8686 104.299 46.6875 103.862 46.6875 103.406C46.6875 102.95 46.8686 102.513 47.1909 102.191C47.5132 101.869 47.9504 101.688 48.4062 101.688H62.1562C62.5645 101.688 62.9592 101.834 63.2698 102.099C63.5804 102.364 63.7866 102.73 63.8514 103.133C63.8199 103.314 63.8199 103.499 63.8514 103.679ZM91.375 36.375H93.0938V43.25H91.375V36.375ZM87.9375 46.6875H94.8125V50.125H87.9375V46.6875ZM105.125 81.0625C105.123 82.8852 104.398 84.6327 103.109 85.9216C101.82 87.2105 100.073 87.9355 98.25 87.9375H87.9375V53.5625H98.25C100.073 53.5645 101.82 54.2895 103.109 55.5784C104.398 56.8673 105.123 58.6148 105.125 60.4375V81.0625Z" fill="url(#paint0_linear)"/>
<path d="M19.1875 57C18.7317 57 18.2945 57.1811 17.9722 57.5034C17.6498 57.8257 17.4688 58.2629 17.4688 58.7188V69.0312C17.4688 69.4871 17.6498 69.9243 17.9722 70.2466C18.2945 70.5689 18.7317 70.75 19.1875 70.75C19.6433 70.75 20.0805 70.5689 20.4028 70.2466C20.7252 69.9243 20.9062 69.4871 20.9062 69.0312V58.7188C20.9062 58.2629 20.7252 57.8257 20.4028 57.5034C20.0805 57.1811 19.6433 57 19.1875 57Z" fill="url(#paint1_linear)"/>
<path d="M19.1875 72.4688C18.7317 72.4688 18.2945 72.6498 17.9722 72.9722C17.6498 73.2945 17.4688 73.7317 17.4688 74.1875V75.9062C17.4688 76.3621 17.6498 76.7993 17.9722 77.1216C18.2945 77.4439 18.7317 77.625 19.1875 77.625C19.6433 77.625 20.0805 77.4439 20.4028 77.1216C20.7252 76.7993 20.9062 76.3621 20.9062 75.9062V74.1875C20.9062 73.7317 20.7252 73.2945 20.4028 72.9722C20.0805 72.6498 19.6433 72.4688 19.1875 72.4688Z" fill="url(#paint2_linear)"/>
<defs>
<linearGradient id="paint0_linear" x1="8.03324" y1="111.085" x2="114.287" y2="4.83057" gradientUnits="userSpaceOnUse">
<stop stop-color="white"/>
<stop offset="0.518" stop-color="white"/>
<stop offset="1" stop-color="white"/>
</linearGradient>
<linearGradient id="paint1_linear" x1="-146.943" y1="5994.65" x2="3053.18" y2="5194.62" gradientUnits="userSpaceOnUse">
<stop stop-color="white"/>
<stop offset="0.518" stop-color="white"/>
<stop offset="1" stop-color="white"/>
</linearGradient>
<linearGradient id="paint2_linear" x1="-57.5684" y1="2433.15" x2="2296.37" y2="863.86" gradientUnits="userSpaceOnUse">
<stop stop-color="white"/>
<stop offset="0.518" stop-color="white"/>
<stop offset="1" stop-color="white"/>
</linearGradient>
</defs>
</svg>
