<svg width="115" height="21" viewBox="0 0 115 21" fill="none" xmlns="http://www.w3.org/2000/svg">
<g clip-path="url(#clip0)">
<path d="M42.7295 13.2246C42.7295 14.127 42.4036 14.8379 41.752 15.3574C41.1048 15.877 40.2025 16.1367 39.0449 16.1367C37.9785 16.1367 37.0352 15.9362 36.2148 15.5352V13.5664C36.8893 13.8672 37.459 14.0791 37.9238 14.2021C38.3932 14.3252 38.8216 14.3867 39.209 14.3867C39.6738 14.3867 40.0293 14.2979 40.2754 14.1201C40.526 13.9424 40.6514 13.6781 40.6514 13.3271C40.6514 13.1312 40.5967 12.958 40.4873 12.8076C40.3779 12.6527 40.2161 12.5046 40.002 12.3633C39.7923 12.222 39.3617 11.9964 38.71 11.6865C38.0993 11.3994 37.6413 11.1237 37.3359 10.8594C37.0306 10.5951 36.7868 10.2874 36.6045 9.93652C36.4222 9.58561 36.3311 9.17546 36.3311 8.70605C36.3311 7.82194 36.6296 7.12695 37.2266 6.62109C37.8281 6.11523 38.6576 5.8623 39.7148 5.8623C40.2344 5.8623 40.7288 5.92383 41.1982 6.04688C41.6722 6.16992 42.1667 6.3431 42.6816 6.56641L41.998 8.21387C41.4648 7.99512 41.0228 7.84245 40.6719 7.75586C40.3255 7.66927 39.9837 7.62598 39.6465 7.62598C39.2454 7.62598 38.9378 7.7194 38.7236 7.90625C38.5094 8.0931 38.4023 8.33691 38.4023 8.6377C38.4023 8.82454 38.4456 8.98861 38.5322 9.12988C38.6188 9.2666 38.7555 9.40104 38.9424 9.5332C39.1338 9.66081 39.5827 9.89323 40.2891 10.2305C41.2233 10.6771 41.8636 11.126 42.21 11.5771C42.5563 12.0238 42.7295 12.5729 42.7295 13.2246ZM54.2754 16H51.8623L50.5088 10.75C50.4587 10.5632 50.3721 10.1781 50.249 9.59473C50.1305 9.00684 50.0622 8.61263 50.0439 8.41211C50.0166 8.6582 49.9482 9.05469 49.8389 9.60156C49.7295 10.1439 49.6452 10.5312 49.5859 10.7637L48.2393 16H45.833L43.2832 6.00586H45.3682L46.6465 11.4609C46.8698 12.4681 47.0316 13.3408 47.1318 14.0791C47.1592 13.8193 47.2207 13.4183 47.3164 12.876C47.4167 12.3291 47.5101 11.9053 47.5967 11.6045L49.0527 6.00586H51.0557L52.5117 11.6045C52.5755 11.8551 52.6553 12.238 52.751 12.7529C52.8467 13.2679 52.9196 13.71 52.9697 14.0791C53.0153 13.7236 53.0882 13.2816 53.1885 12.7529C53.2887 12.2197 53.3799 11.7891 53.4619 11.4609L54.7334 6.00586H56.8184L54.2754 16ZM58.0762 16V6.00586H60.1953V16H58.0762ZM64.8301 10.709H65.5273C66.179 10.709 66.6667 10.5814 66.9902 10.3262C67.3138 10.0664 67.4756 9.69043 67.4756 9.19824C67.4756 8.7015 67.3389 8.33464 67.0654 8.09766C66.7965 7.86068 66.3727 7.74219 65.7939 7.74219H64.8301V10.709ZM69.6152 9.12305C69.6152 10.1986 69.278 11.0212 68.6035 11.5908C67.9336 12.1605 66.9788 12.4453 65.7393 12.4453H64.8301V16H62.7109V6.00586H65.9033C67.1156 6.00586 68.0361 6.2679 68.665 6.79199C69.2985 7.31152 69.6152 8.08854 69.6152 9.12305ZM77.2578 16H71.502V6.00586H77.2578V7.74219H73.6211V9.93652H77.0049V11.6729H73.6211V14.25H77.2578V16Z" fill="white"/>
<path d="M104.516 10.625H82.998V12.375H104.516V15L111.665 11.5L104.516 8V10.625V10.625Z" fill="#0AAFF1"/>
<path d="M9.48404 12.375L31.002 12.375L31.002 10.625L9.48404 10.625L9.48404 8L2.33529 11.5L9.48404 15L9.48404 12.375V12.375Z" fill="#0AAFF1"/>
</g>
<defs>
<clipPath id="clip0">
<rect width="115" height="21" fill="white"/>
</clipPath>
</defs>
</svg>
