<svg width="80" height="38" viewBox="0 0 80 38" fill="none" xmlns="http://www.w3.org/2000/svg">
<g clip-path="url(#clip0)">
<path d="M55 3.35L62.417 11L55 18.65L57.2834 21L67 11L57.2834 1L55 3.35Z" fill="white"/>
<path d="M67 3.35L74.417 11L67 18.65L69.2834 21L79 11L69.2834 1L67 3.35Z" fill="white"/>
<path d="M25 18.65L17.583 11L25 3.35L22.7166 1L13 11L22.7166 21L25 18.65Z" fill="white"/>
<path d="M13 18.65L5.58299 11L13 3.35L10.7166 1L0.999998 11L10.7166 21L13 18.65Z" fill="white"/>
<path fill-rule="evenodd" clip-rule="evenodd" d="M35.1367 5.71666L29.8534 11L35.1367 16.2833L32.7867 18.65L25.1367 11L32.7867 3.36666L35.1367 5.71666ZM45.1367 16.2833L50.42 11L45.1367 5.71665L47.4867 3.34998L55.1367 11L47.4867 18.6333L45.1367 16.2833Z" fill="white"/>
<path d="M25.8975 33.2246C25.8975 34.127 25.5716 34.8379 24.9199 35.3574C24.2728 35.877 23.3704 36.1367 22.2129 36.1367C21.1465 36.1367 20.2031 35.9362 19.3828 35.5352V33.5664C20.0573 33.8672 20.627 34.0791 21.0918 34.2021C21.5612 34.3252 21.9896 34.3867 22.377 34.3867C22.8418 34.3867 23.1973 34.2979 23.4434 34.1201C23.694 33.9424 23.8193 33.6781 23.8193 33.3271C23.8193 33.1312 23.7646 32.958 23.6553 32.8076C23.5459 32.6527 23.3841 32.5046 23.1699 32.3633C22.9603 32.222 22.5296 31.9964 21.8779 31.6865C21.2673 31.3994 20.8092 31.1237 20.5039 30.8594C20.1986 30.5951 19.9548 30.2874 19.7725 29.9365C19.5902 29.5856 19.499 29.1755 19.499 28.7061C19.499 27.8219 19.7975 27.127 20.3945 26.6211C20.9961 26.1152 21.8255 25.8623 22.8828 25.8623C23.4023 25.8623 23.8968 25.9238 24.3662 26.0469C24.8402 26.1699 25.3346 26.3431 25.8496 26.5664L25.166 28.2139C24.6328 27.9951 24.1908 27.8424 23.8398 27.7559C23.4935 27.6693 23.1517 27.626 22.8145 27.626C22.4134 27.626 22.1058 27.7194 21.8916 27.9062C21.6774 28.0931 21.5703 28.3369 21.5703 28.6377C21.5703 28.8245 21.6136 28.9886 21.7002 29.1299C21.7868 29.2666 21.9235 29.401 22.1104 29.5332C22.3018 29.6608 22.7507 29.8932 23.457 30.2305C24.3913 30.6771 25.0316 31.126 25.3779 31.5771C25.7243 32.0238 25.8975 32.5729 25.8975 33.2246ZM37.4434 36H35.0303L33.6768 30.75C33.6266 30.5632 33.54 30.1781 33.417 29.5947C33.2985 29.0068 33.2301 28.6126 33.2119 28.4121C33.1846 28.6582 33.1162 29.0547 33.0068 29.6016C32.8975 30.1439 32.8132 30.5312 32.7539 30.7637L31.4072 36H29.001L26.4512 26.0059H28.5361L29.8145 31.4609C30.0378 32.4681 30.1995 33.3408 30.2998 34.0791C30.3271 33.8193 30.3887 33.4183 30.4844 32.876C30.5846 32.3291 30.6781 31.9053 30.7646 31.6045L32.2207 26.0059H34.2236L35.6797 31.6045C35.7435 31.8551 35.8232 32.238 35.9189 32.7529C36.0146 33.2679 36.0876 33.71 36.1377 34.0791C36.1833 33.7236 36.2562 33.2816 36.3564 32.7529C36.4567 32.2197 36.5479 31.7891 36.6299 31.4609L37.9014 26.0059H39.9863L37.4434 36ZM41.2441 36V26.0059H43.3633V36H41.2441ZM47.998 30.709H48.6953C49.347 30.709 49.8346 30.5814 50.1582 30.3262C50.4818 30.0664 50.6436 29.6904 50.6436 29.1982C50.6436 28.7015 50.5068 28.3346 50.2334 28.0977C49.9645 27.8607 49.5407 27.7422 48.9619 27.7422H47.998V30.709ZM52.7832 29.123C52.7832 30.1986 52.446 31.0212 51.7715 31.5908C51.1016 32.1605 50.1468 32.4453 48.9072 32.4453H47.998V36H45.8789V26.0059H49.0713C50.2835 26.0059 51.2041 26.2679 51.833 26.792C52.4665 27.3115 52.7832 28.0885 52.7832 29.123ZM60.4258 36H54.6699V26.0059H60.4258V27.7422H56.7891V29.9365H60.1729V31.6729H56.7891V34.25H60.4258V36Z" fill="white"/>
</g>
<defs>
<clipPath id="clip0">
<rect width="80" height="38" fill="white"/>
</clipPath>
</defs>
</svg>
