<svg width="247" height="247" viewBox="0 0 247 247" fill="none" xmlns="http://www.w3.org/2000/svg">
<circle cx="123.5" cy="123.5" r="119.5" fill="#007E49" stroke="#007E49" stroke-width="8"/>
<path d="M78.2 94H53V173.8H78.2C82.8389 173.8 86.6 170.039 86.6 165.4V102.4C86.6 97.7606 82.8389 94 78.2 94ZM69.8 165.4C65.1611 165.4 61.4 161.639 61.4 157C61.4 152.361 65.1611 148.6 69.8 148.6C74.4389 148.6 78.2 152.361 78.2 157C78.2 161.639 74.4389 165.4 69.8 165.4Z" fill="white"/>
<path d="M183.192 104.177L176.709 100.443C174.16 98.9731 171.269 98.2 168.324 98.2H149.6C147.281 98.2 145.4 96.3194 145.4 94V59.308C145.4 55.2721 142.127 52 138.091 52H138.066C134.922 52 132.129 54.0128 131.135 56.9967L123.071 78.0899C121.203 82.9753 117.862 87.1585 113.51 90.0594L95 102.4V165.4H98.7467C101.792 165.4 104.778 166.227 107.391 167.794L120.409 175.606C123.022 177.173 126.008 178 129.053 178H165C168.636 178 172.171 176.821 175.079 174.64L184.041 167.92C186.155 166.334 187.4 163.844 187.4 161.2V111.455C187.4 108.451 185.796 105.676 183.192 104.177Z" fill="white"/>
<rect x="58" y="145" width="22" height="22" fill="white"/>
</svg>
