<svg width="175" height="175" viewBox="0 0 175 175" fill="none" xmlns="http://www.w3.org/2000/svg">
<path d="M54.2437 46.4844C58.2769 50.1074 62.7203 47.6123 64.1217 46.1426L80.5279 28.5059V130.088C80.5279 133.95 83.6383 137.061 87.5006 137.061C91.3629 137.061 94.4732 133.95 94.4732 130.088V28.4717L110.879 46.1084C113.511 48.9453 117.92 49.082 120.757 46.4502C123.594 43.8184 123.731 39.4092 121.099 36.5723L92.5933 5.94727C91.2603 4.5459 89.4146 3.72559 87.5006 3.72559C85.5523 3.72559 83.7066 4.5459 82.4078 5.94727L53.9019 36.5723C51.2701 39.4434 51.3726 43.9209 54.2437 46.4844V46.4844Z" fill="white" fill-opacity="0.6"/>
<path d="M164.268 114.502C160.405 114.502 157.295 117.612 157.295 121.475V157.295H17.7051V121.475C17.7051 117.612 14.5947 114.502 10.7324 114.502C6.87012 114.502 3.75977 117.612 3.75977 121.475V164.268C3.75977 168.13 6.87012 171.24 10.7324 171.24H164.268C168.13 171.24 171.24 168.13 171.24 164.268V121.475C171.24 117.612 168.13 114.502 164.268 114.502Z" fill="white" fill-opacity="0.6"/>
</svg>
