<svg width="20" height="20" viewBox="0 0 20 20" fill="none" xmlns="http://www.w3.org/2000/svg">
<g clip-path="url(#clip0)">
<path d="M17.9972 0.856039L6.58888 0.000405102C6.51466 -0.00469964 6.44202 0.0204314 6.38743 0.0710862C6.36152 0.0950392 6.34188 0.123704 6.32657 0.155118L1.93924 1.61782C1.83007 1.65395 1.75586 1.75644 1.75586 1.87149V17.1304C1.75586 17.2273 1.80887 17.3165 1.89408 17.364L6.31911 19.8217C6.33325 19.8638 6.3572 19.9018 6.39097 19.9321C6.44084 19.9761 6.50445 20 6.56924 20C6.57945 20 6.58927 19.9996 6.59948 19.998L18.0082 18.7148C18.1425 18.6991 18.2454 18.5848 18.2454 18.449V1.12266C18.245 0.98248 18.137 0.867034 17.9972 0.856039ZM6.24764 19.1707L2.29107 16.9725V2.06429L6.24764 0.745305V19.1707ZM17.7094 18.2106L6.83665 19.4334V0.555644L17.7094 1.37123V18.2106Z" fill="white"/>
<path d="M8.63923 15.0111C8.64551 15.0111 8.65258 15.0111 8.65847 15.0103L16.1373 14.4762C16.3977 14.47 16.6081 14.2567 16.6081 13.9952V4.0123C16.6081 3.75078 16.3977 3.53717 16.1373 3.53128L8.65847 2.99725C8.65258 2.99685 8.64551 2.99646 8.63923 2.99646C8.37339 2.99646 8.1582 3.21243 8.1582 3.47748V14.5296C8.1586 14.7951 8.37339 15.0111 8.63923 15.0111ZM11.953 6.2635C11.9616 6.25643 11.9699 6.24857 11.9781 6.24072C11.9809 6.23876 11.9828 6.2368 11.986 6.23405C11.9934 6.22659 12.0013 6.2203 12.0095 6.21245C12.0091 6.21245 12.0084 6.21245 12.0084 6.21245C12.134 6.09268 12.3076 5.90185 12.4108 5.66978C12.7124 5.48247 12.9127 5.15027 12.9127 4.76938C12.9127 4.71676 12.9076 4.66493 12.9009 4.61427L13.8088 4.65354C13.9262 4.65354 14.0216 4.55773 14.0216 4.43953V3.91571L16.0725 4.06217V13.9446L9.37235 14.4232V11.9773L15.3818 11.7668V13.9332H15.5954V11.5446L13.0776 11.6333V7.67594L13.0411 7.69675L11.869 7.22633C11.9216 7.21141 11.9781 7.19884 12.0276 7.18785C12.2224 7.14426 12.4234 7.0991 12.491 6.94871C12.5283 6.86743 12.5173 6.77319 12.4599 6.66873C12.3433 6.45551 12.1749 6.4135 12.0512 6.38248C11.9832 6.36559 11.9334 6.35106 11.9012 6.30826C11.9165 6.2957 11.9334 6.28077 11.953 6.2635ZM11.622 7.705V7.92764L10.4172 8.35919V8.13615L11.622 7.705ZM10.4169 8.00264V7.81141L11.6216 7.3457V7.5707L10.4169 8.00264ZM11.622 8.06115V8.2838L10.4172 8.71613V8.49309L11.622 8.06115ZM11.622 8.41731V8.63995L10.4172 9.07189V8.84964L11.622 8.41731ZM11.622 8.77425V8.99689L10.4172 9.42844V9.20579L11.622 8.77425ZM11.622 9.1304V9.35305L10.4172 9.78499V9.56234L11.622 9.1304ZM11.622 9.48695V9.70959L10.4172 10.1415V9.91889L11.622 9.48695ZM11.622 9.84349V10.0661L10.4172 10.4985V10.2762L11.622 9.84349ZM11.622 10.2004V10.4231L10.4172 10.855V10.632L11.622 10.2004ZM11.622 10.557V10.7792L10.4172 11.2116V10.9889L11.622 10.557ZM11.622 10.9131V11.684L10.4172 11.7256V11.3447L11.622 10.9131ZM12.9523 8.13419V8.35683L11.7484 7.92529V7.70225L12.9523 8.13419ZM11.748 7.56874V7.3457L12.9516 7.81141V8.00068L11.748 7.56874ZM12.9523 8.49113V8.71417L11.7484 8.28223V8.05958L12.9523 8.49113ZM12.9523 8.84728V9.06993L11.7484 8.63799V8.41534L12.9523 8.84728ZM12.9523 9.20422V9.42687L11.7484 8.99532V8.77228L12.9523 9.20422ZM12.9523 9.56038V9.78302L11.7484 9.35108V9.12804L12.9523 9.56038ZM12.9523 9.91692V10.1392L11.7484 9.70763V9.48498L12.9523 9.91692ZM12.9523 10.2739V10.4965L11.7484 10.0642V9.84153L12.9523 10.2739ZM12.9523 10.6296V10.8527L11.7484 10.4207V10.1981L12.9523 10.6296ZM12.9523 10.9866V11.2092L11.7484 10.7769V10.555L12.9523 10.9866ZM12.9523 11.3431V11.6372L11.7484 11.6792V10.9108L12.9523 11.3431ZM8.69302 3.5356L9.88714 3.62081V4.27971C9.88714 4.39791 9.98295 4.49372 10.1011 4.49372L10.8217 4.52474C10.8025 4.60367 10.7915 4.68535 10.7915 4.76977C10.7915 5.15066 10.9933 5.48286 11.2945 5.67017C11.3805 5.86297 11.5148 6.0275 11.6298 6.14648C11.6322 6.2364 11.6667 6.32475 11.6667 6.32475C11.6667 6.32475 11.8057 6.54544 11.9993 6.59413C12.1061 6.62083 12.1992 6.6436 12.2695 6.77358C12.2938 6.81913 12.2978 6.8474 12.2934 6.85879C12.2695 6.90984 12.0959 6.94871 11.9809 6.97423C11.7818 7.019 11.5764 7.06455 11.503 7.21965L11.5093 7.2224L10.3265 7.69636L10.2908 7.67633V11.7307L9.15873 11.7707V11.7782L8.69263 11.8316L8.69302 3.5356ZM8.69302 12.046L9.15913 11.9938V14.4385L8.69302 14.4719V12.046Z" fill="white"/>
<path d="M3.24792 14.3943L5.13746 15.0764C5.16691 15.0874 5.19794 15.0925 5.22896 15.0925C5.49401 15.0925 5.70998 14.8769 5.70998 14.611V3.55966C5.70998 3.29422 5.49401 3.07825 5.22896 3.07825C5.21168 3.07825 5.1944 3.07982 5.17712 3.08335L3.27227 3.45914C3.02096 3.47524 2.82227 3.68453 2.82227 3.93899V13.916C2.82227 14.163 3.00839 14.3668 3.24792 14.3943ZM3.35709 3.98728L5.17516 3.62838V12.2393L4.15892 12.407V14.1406L4.37293 14.194V12.5888L5.17516 12.4564V14.5223L3.39439 13.8795C3.38182 13.8752 3.36965 13.8712 3.35709 13.8689V3.98728Z" fill="white"/>
<path d="M10.0867 17.1181V17.1154C10.2123 17.0557 10.2705 16.952 10.2677 16.8338C10.263 16.6854 10.1503 16.5649 9.93982 16.5825C9.81691 16.5935 9.70422 16.645 9.64767 16.6952L9.69676 16.8468C9.73838 16.8115 9.82006 16.7643 9.90369 16.7573C10.0152 16.7482 10.069 16.8087 10.0714 16.8849C10.0753 16.9984 9.96338 17.0537 9.87346 17.0608L9.78707 17.0683L9.79178 17.2249L9.88171 17.2171C10.0007 17.2073 10.1153 17.2552 10.1189 17.3895C10.1236 17.479 10.0667 17.576 9.9194 17.5893C9.82084 17.5968 9.72424 17.5619 9.68341 17.5387L9.64453 17.7052C9.70029 17.7405 9.80906 17.7696 9.93315 17.7594C10.1864 17.7382 10.3258 17.5732 10.3195 17.382C10.316 17.2285 10.2123 17.1331 10.0867 17.1181Z" fill="white"/>
<path d="M10.6887 16.4876C10.5737 16.497 10.4657 16.5147 10.3809 16.5379L10.4162 17.6958C10.4798 17.699 10.565 17.699 10.6777 17.6892C10.8839 17.6715 11.0504 17.6028 11.1532 17.4877C11.2506 17.3782 11.3095 17.2156 11.3036 17.0055C11.2974 16.8049 11.2298 16.6706 11.1258 16.5865C11.0244 16.5049 10.887 16.4711 10.6887 16.4876ZM10.7115 17.5156C10.6726 17.5187 10.631 17.5223 10.6051 17.5191L10.5792 16.6776C10.6059 16.6682 10.6498 16.6592 10.7103 16.6533C10.9526 16.6329 11.0936 16.7703 11.0991 17.0299C11.1089 17.3299 10.9636 17.496 10.7115 17.5156Z" fill="white"/>
<path d="M12.1428 16.4565C12.0219 16.4668 11.9343 16.4836 11.8711 16.5017L11.9049 17.5733L12.0816 17.5584L12.069 17.1492C12.093 17.1524 12.1228 17.1512 12.1566 17.1488C12.2822 17.1378 12.3933 17.0911 12.4617 17.0063C12.5139 16.9431 12.5414 16.8555 12.5375 16.7526C12.5351 16.6505 12.4947 16.5689 12.4342 16.5206C12.3698 16.4683 12.274 16.4459 12.1428 16.4565ZM12.1515 16.9941C12.1142 16.9969 12.0855 16.9977 12.0631 16.9933L12.0517 16.6258C12.071 16.6195 12.1063 16.612 12.1554 16.6073C12.2783 16.5979 12.356 16.6552 12.36 16.7762C12.3631 16.9038 12.2842 16.9827 12.1515 16.9941Z" fill="white"/>
<path d="M13.0195 16.6753C12.9452 16.6816 12.864 16.7448 12.8318 16.8591L12.8259 16.8595L12.8157 16.7106L12.6602 16.7232C12.6672 16.7939 12.6704 16.8697 12.6739 16.9761L12.69 17.5078L12.8687 17.4925L12.8565 17.0864C12.8557 17.0633 12.8581 17.0425 12.8604 17.0244C12.8734 16.9345 12.9303 16.8689 13.0159 16.8614C13.0375 16.8595 13.0536 16.8614 13.0674 16.8638L13.0615 16.6769C13.0477 16.6745 13.0379 16.6733 13.0195 16.6753Z" fill="white"/>
<path d="M13.1836 16.6788L13.2079 17.4633L13.3878 17.448L13.363 16.6635L13.1836 16.6788Z" fill="white"/>
<path d="M13.2685 16.5587C13.3302 16.5528 13.3683 16.5029 13.3663 16.444C13.3624 16.3827 13.3247 16.3395 13.2627 16.3446C13.2034 16.3494 13.1645 16.4 13.1661 16.4609C13.1676 16.5198 13.2085 16.5634 13.2685 16.5587Z" fill="white"/>
<path d="M13.9438 16.5967C13.8264 16.6065 13.7526 16.6866 13.7232 16.751L13.7196 16.7514L13.7071 16.634L13.5508 16.6474C13.5567 16.7149 13.5606 16.7903 13.563 16.8806L13.5806 17.4311L13.7601 17.4154L13.7463 16.9552C13.7455 16.932 13.7463 16.9085 13.7514 16.89C13.7687 16.8288 13.8166 16.7679 13.8877 16.762C13.9851 16.7538 14.0251 16.8362 14.0283 16.9485L14.0424 17.3923L14.2211 17.3769L14.2062 16.9112C14.1983 16.6639 14.0679 16.5857 13.9438 16.5967Z" fill="white"/>
<path d="M14.693 17.1916C14.6243 17.1979 14.6004 17.1499 14.5972 17.0541L14.5862 16.7082L14.7566 16.6937L14.7519 16.5448L14.5819 16.5598L14.5744 16.3359L14.4025 16.3972L14.4083 16.5743L14.3066 16.5829L14.311 16.7306L14.4131 16.7223L14.4244 17.0907C14.4276 17.1939 14.4476 17.2634 14.4857 17.3058C14.5203 17.3431 14.576 17.3628 14.6412 17.3569C14.6974 17.3518 14.7441 17.34 14.7692 17.3266L14.7617 17.1755C14.7472 17.1829 14.7233 17.1892 14.693 17.1916Z" fill="white"/>
<path d="M15.1778 16.4918C14.9524 16.5106 14.8397 16.7258 14.846 16.9422C14.8542 17.1825 14.9932 17.3274 15.2225 17.3078C15.3242 17.2995 15.4079 17.2709 15.4672 17.2391L15.4377 17.104C15.3839 17.1315 15.325 17.1491 15.2422 17.1562C15.1287 17.166 15.0262 17.1138 15.0183 16.9713L15.4915 16.9312C15.4946 16.9127 15.4962 16.8841 15.495 16.8472C15.4892 16.6756 15.4079 16.4722 15.1778 16.4918ZM15.0136 16.8334C15.0183 16.7517 15.0627 16.6367 15.1723 16.6281C15.2912 16.6182 15.3242 16.7345 15.325 16.8075L15.0136 16.8334Z" fill="white"/>
<path d="M15.98 16.4231C15.9054 16.4298 15.8245 16.4938 15.7923 16.6073L15.7864 16.608L15.7766 16.4588L15.6211 16.4714C15.6282 16.5421 15.6313 16.6179 15.6348 16.7247L15.6509 17.2563L15.8304 17.2414L15.8174 16.8358C15.8166 16.8126 15.819 16.7918 15.8214 16.7738C15.8343 16.6838 15.8909 16.6183 15.9761 16.6104C15.9988 16.6088 16.0149 16.6104 16.0295 16.6128L16.0228 16.4255C16.0083 16.4223 15.9985 16.4219 15.98 16.4231Z" fill="white"/>
</g>
<defs>
<clipPath id="clip0">
<rect width="20" height="20" fill="white"/>
</clipPath>
</defs>
</svg>
