<svg width="34" height="34" viewBox="0 0 34 34" fill="none" xmlns="http://www.w3.org/2000/svg">
<g id="account_circle_24px">
<path id="icon/action/account_circle_24px" fill-rule="evenodd" clip-rule="evenodd" d="M17.0007 2.83337C9.18065 2.83337 2.83398 9.18004 2.83398 17C2.83398 24.82 9.18065 31.1667 17.0007 31.1667C24.8207 31.1667 31.1673 24.82 31.1673 17C31.1673 9.18004 24.8207 2.83337 17.0007 2.83337ZM10.0164 25.8967C10.6256 24.6217 14.3372 23.375 17.0006 23.375C19.6639 23.375 23.3897 24.6217 23.9847 25.8967C22.0581 27.4267 19.6356 28.3334 17.0006 28.3334C14.3656 28.3334 11.9431 27.4267 10.0164 25.8967ZM17.0007 20.5417C19.069 20.5417 23.9848 21.3775 26.0106 23.8425C27.4556 21.9442 28.334 19.5784 28.334 17C28.334 10.7525 23.2481 5.66671 17.0007 5.66671C10.7532 5.66671 5.66732 10.7525 5.66732 17C5.66732 19.5784 6.54565 21.9442 7.99065 23.8425C10.0165 21.3775 14.9323 20.5417 17.0007 20.5417ZM17.0006 8.50004C14.2523 8.50004 12.0423 10.71 12.0423 13.4584C12.0423 16.2067 14.2523 18.4167 17.0006 18.4167C19.749 18.4167 21.959 16.2067 21.959 13.4584C21.959 10.71 19.749 8.50004 17.0006 8.50004ZM14.8757 13.4584C14.8757 14.6342 15.8248 15.5834 17.0007 15.5834C18.1765 15.5834 19.1257 14.6342 19.1257 13.4584C19.1257 12.2825 18.1765 11.3334 17.0007 11.3334C15.8248 11.3334 14.8757 12.2825 14.8757 13.4584Z" fill="white"/>
</g>
</svg>
