<svg width="18" height="12" viewBox="0 0 18 12" fill="none" xmlns="http://www.w3.org/2000/svg">
<path fill-rule="evenodd" clip-rule="evenodd" d="M14.5125 4.53C14.0025 1.9425 11.73 0 9 0C6.8325 0 4.95 1.23 4.0125 3.03C1.755 3.27 0 5.1825 0 7.5C0 9.9825 2.0175 12 4.5 12H14.25C16.32 12 18 10.32 18 8.25C18 6.27 16.4625 4.665 14.5125 4.53ZM14.2504 10.4999H4.50039C2.84289 10.4999 1.50039 9.15743 1.50039 7.49994C1.50039 5.96244 2.64789 4.67994 4.17039 4.52244L4.97289 4.43994L5.34789 3.72744C6.06039 2.35494 7.45539 1.49994 9.00039 1.49994C10.9654 1.49994 12.6604 2.89494 13.0429 4.82244L13.2679 5.94744L14.4154 6.02994C15.5854 6.10494 16.5004 7.08744 16.5004 8.24994C16.5004 9.48743 15.4879 10.4999 14.2504 10.4999ZM7.91228 4.50006H10.0873V6.75005H11.9998L8.99978 9.75004L5.99978 6.75005H7.91228V4.50006Z" fill="white" fill-opacity="0.6"/>
</svg>
