<svg width="19" height="20" viewBox="0 0 19 20" fill="none" xmlns="http://www.w3.org/2000/svg">
<path d="M18.9953 4.65041C18.9946 4.64489 18.9937 4.63945 18.9929 4.63401C18.9897 4.61373 18.9856 4.59382 18.9803 4.57434C18.9796 4.57133 18.9789 4.56839 18.9781 4.56538C18.9715 4.54289 18.9636 4.52097 18.9543 4.49977C18.9527 4.49619 18.9509 4.49275 18.9493 4.48917C18.9409 4.47083 18.9315 4.45306 18.9211 4.43594C18.9191 4.4325 18.9172 4.42899 18.9151 4.42563C18.903 4.40657 18.8898 4.38838 18.8755 4.37111C18.8727 4.36775 18.8697 4.3646 18.8668 4.36123C18.8542 4.34683 18.8409 4.33315 18.827 4.32018C18.8234 4.31689 18.82 4.31345 18.8164 4.3103C18.7994 4.2954 18.7815 4.28157 18.7628 4.26897C18.7599 4.26703 18.7569 4.26531 18.754 4.26345C18.7362 4.25199 18.7177 4.24167 18.6985 4.23243C18.6966 4.2315 18.6948 4.23021 18.6929 4.22928L9.71627 0.0480834C9.57884 -0.0160278 9.42102 -0.0160278 9.28359 0.0480834L3.08113 2.93724C2.81785 3.05988 2.70135 3.37829 2.82085 3.64848C2.94027 3.91868 3.25067 4.0386 3.51388 3.9156L9.49997 1.12723L17.193 4.71065L9.49997 8.18032L0.734004 4.22677L0.73212 4.22606C0.719277 4.22033 0.706015 4.21538 0.692683 4.21066C0.689333 4.20944 0.685983 4.20801 0.682632 4.20686C0.671674 4.20328 0.660366 4.20049 0.649129 4.19762C0.643196 4.19612 0.637263 4.19425 0.63126 4.19296C0.624071 4.19139 0.616672 4.19053 0.609344 4.18924C0.599153 4.18752 0.588962 4.18559 0.578772 4.18444C0.574025 4.18394 0.56907 4.18387 0.564254 4.18351C0.55148 4.18251 0.538777 4.18165 0.526074 4.18157L0.523421 4.18143C0.518466 4.18143 0.513649 4.18208 0.508763 4.18222C0.497456 4.18251 0.486149 4.18286 0.474981 4.18394C0.466256 4.18473 0.457741 4.18616 0.449155 4.18745C0.441268 4.18867 0.433311 4.1896 0.425563 4.19117C0.414884 4.19325 0.404484 4.19597 0.394014 4.19862C0.388361 4.20013 0.382707 4.20142 0.377123 4.20314C0.365815 4.2065 0.354787 4.21051 0.343829 4.2146C0.339083 4.21632 0.334336 4.21796 0.32966 4.2199C0.318841 4.22434 0.308301 4.22928 0.297831 4.23444C0.293015 4.23687 0.28806 4.2391 0.283313 4.24167C0.273821 4.24669 0.264537 4.2522 0.255394 4.25786C0.24974 4.2613 0.244086 4.26467 0.238642 4.26832C0.230755 4.27355 0.223147 4.27921 0.215539 4.28487C0.209187 4.2896 0.202835 4.29432 0.196693 4.29934C0.190272 4.30464 0.184059 4.31023 0.177917 4.31581C0.171216 4.32183 0.164586 4.32778 0.158234 4.33415C0.15272 4.33967 0.147485 4.34554 0.14225 4.35127C0.135968 4.35815 0.129686 4.36495 0.123683 4.37219C0.118379 4.37864 0.113423 4.38551 0.108328 4.39225C0.103163 4.39912 0.0979975 4.40586 0.0931116 4.41309C0.0873183 4.42169 0.0820834 4.43064 0.0767787 4.4396C0.0733585 4.4454 0.069729 4.45106 0.0664485 4.457C0.0601666 4.46861 0.0545827 4.48057 0.0490686 4.4926C0.047533 4.49604 0.0456484 4.49912 0.0441826 4.50263L0.0434847 4.50457C0.0379008 4.51775 0.0330846 4.53128 0.0285477 4.5449C0.0273611 4.54841 0.0258954 4.55184 0.0247786 4.55535C0.0213584 4.56646 0.0186363 4.57792 0.0159141 4.58931C0.0143786 4.59561 0.012494 4.60184 0.0111678 4.60822C0.00970204 4.61524 0.00893425 4.6224 0.00774767 4.62949C0.0059329 4.64038 0.00397854 4.65127 0.00286176 4.66223C0.00244297 4.66653 0.00244297 4.67083 0.00209398 4.67512C0.000977198 4.68888 0.000139609 4.7027 6.98104e-05 4.71646L0 4.71882V15.2078C0 15.4173 0.118658 15.6077 0.303974 15.6955L9.28052 19.9504L9.28233 19.9511C9.28617 19.9529 9.29008 19.9542 9.29392 19.9558C9.31137 19.9635 9.32889 19.9702 9.34669 19.9758C9.3529 19.9777 9.35918 19.9794 9.36553 19.9811C9.38249 19.9857 9.39946 19.9895 9.41649 19.9923C9.42172 19.9932 9.42696 19.9943 9.43226 19.995C9.45474 19.998 9.47728 20 9.49969 20C9.50192 20 9.50408 19.9996 9.50632 19.9995C9.52607 19.9993 9.54582 19.9978 9.56551 19.9952C9.57277 19.9943 9.57989 19.9928 9.587 19.9916C9.60229 19.989 9.61751 19.9857 9.63258 19.9816C9.63963 19.9797 9.64654 19.9779 9.65345 19.9756C9.67013 19.9704 9.68647 19.9642 9.70273 19.9572C9.70727 19.9552 9.71187 19.9537 9.71634 19.9516L9.71948 19.9503L18.696 15.6954C18.8813 15.6076 19 15.4172 19 15.2077V4.7186C19 4.69547 18.9981 4.67276 18.9953 4.65041ZM10.0235 18.6225V11.4087C10.0235 11.1119 9.78914 10.8714 9.49997 10.8714C9.21079 10.8714 8.97647 11.1119 8.97647 11.4087V18.6226L1.04691 14.864V5.54152L9.28938 9.25897C9.35653 9.28927 9.42821 9.30438 9.50004 9.30438C9.57186 9.30438 9.64354 9.28927 9.71069 9.25897L17.953 5.54152V14.8639L10.0235 18.6225Z" fill="white"/>
</svg>
