<svg width="32" height="36" viewBox="0 0 32 36" fill="none" xmlns="http://www.w3.org/2000/svg">
<g id="download_done_24px">
<path id="icon/file/download_done_24px" fill-rule="evenodd" clip-rule="evenodd" d="M9.10761 23.5935C9.88571 24.3716 11.1462 24.3749 11.9285 23.601L30.5706 5.15717C31.3588 4.37737 31.3622 3.10521 30.5782 2.32121L28.8428 0.585786C28.0617 -0.195262 26.7954 -0.195262 26.0144 0.585786L11.2214 15.3788C10.8309 15.7693 10.1977 15.7693 9.80718 15.3788L5.94984 11.5214C5.18292 10.7545 3.94447 10.7386 3.15813 11.4856L1.48766 13.0726C0.672288 13.8472 0.655696 15.1416 1.45094 15.9368L9.10761 23.5935ZM2 31.1716C0.895431 31.1716 0 32.067 0 33.1716V33.743C0 34.8476 0.895431 35.743 2 35.743H30C31.1046 35.743 32 34.8476 32 33.743V33.1716C32 32.067 31.1046 31.1716 30 31.1716H2Z" fill="#0AAFF1"/>
</g>
</svg>
