<svg width="20" height="12" viewBox="0 0 20 12" fill="none" xmlns="http://www.w3.org/2000/svg">
<path fill-rule="evenodd" clip-rule="evenodd" d="M0 5.71436C1.50288 2.49502 5.21231 0.214355 9.5559 0.214355C13.8995 0.214355 17.6089 2.49502 19.1118 5.71436C17.6089 8.93369 13.8995 11.2144 9.5559 11.2144C5.21231 11.2144 1.50288 8.93369 0 5.71436ZM17.2175 5.71422C15.7841 3.24289 12.8478 1.68089 9.55541 1.68089C6.26296 1.68089 3.3267 3.24289 1.89331 5.71422C3.3267 8.18555 6.25428 9.74755 9.55541 9.74755C12.8565 9.74755 15.7841 8.18555 17.2175 5.71422ZM9.55525 3.88102C10.7541 3.88102 11.727 4.70236 11.727 5.71436C11.727 6.72636 10.7541 7.54769 9.55525 7.54769C8.35643 7.54769 7.38346 6.72636 7.38346 5.71436C7.38346 4.70236 8.35643 3.88102 9.55525 3.88102ZM5.64681 5.71427C5.64681 3.8956 7.40162 2.41427 9.55604 2.41427C11.7105 2.41427 13.4653 3.8956 13.4653 5.71427C13.4653 7.53294 11.7105 9.01427 9.55604 9.01427C7.40162 9.01427 5.64681 7.53294 5.64681 5.71427Z" fill="white" fill-opacity="0.6"/>
</svg>
