<svg width="28" height="28" viewBox="0 0 28 28" fill="none" xmlns="http://www.w3.org/2000/svg">
<g clip-path="url(#clip0)">
<mask id="path-1-outside-1" maskUnits="userSpaceOnUse" x="-38" y="-38" width="105" height="104" fill="black">
<rect fill="white" x="-38" y="-38" width="105" height="104"/>
<path d="M14.0003 8.4C11.2 8.4 8.4 11.2 8.4 14C8.4 16.8 10.2667 19.6 14 19.6C16.8 19.6 19.6 16.8 19.6 14C19.6 11.2 16.8007 8.4 14.0003 8.4ZM14.0003 8.4C11.2 8.4 8.4 11.2 8.4 14C8.4 16.8 10.2667 19.6 14 19.6C16.8 19.6 19.6 16.8 19.6 14C19.6 11.2 16.8007 8.4 14.0003 8.4ZM22.4006 2.33333H5.6C4.1193 2.33333 2.33333 4.1193 2.33333 5.6V22.4C2.33333 23.8807 4.1193 25.6667 5.6 25.6667H22.4C23.8807 25.6667 25.6667 23.8807 25.6667 22.4V5.6C25.6667 4.1193 23.8813 2.33333 22.4006 2.33333ZM14.0003 21.9333C9.33366 21.9333 6.0673 18.6664 6.06667 13.9997C6.06603 9.33303 9.333 6.06667 14 6.06667C18.667 6.06667 22.1409 9.33272 22.1409 13.9997C22.1409 18.6667 18.667 21.9333 14.0003 21.9333ZM22.4 7C21.7709 7 21.2591 6.4882 21.2591 5.85906C21.2591 5.22992 21.7709 4.71812 22.4 4.71812C23.0291 4.71812 23.5409 5.22992 23.5409 5.85906C23.5409 6.4882 23.0291 7 22.4 7ZM14.0003 8.4C11.2 8.4 8.4 11.2 8.4 14C8.4 16.8 10.2667 19.6 14 19.6C16.8 19.6 19.6 16.8 19.6 14C19.6 11.2 16.8007 8.4 14.0003 8.4ZM22.4006 2.33333H5.6C4.1193 2.33333 2.33333 4.1193 2.33333 5.6V22.4C2.33333 23.8807 4.1193 25.6667 5.6 25.6667H22.4C23.8807 25.6667 25.6667 23.8807 25.6667 22.4V5.6C25.6667 4.1193 23.8813 2.33333 22.4006 2.33333ZM14.0003 21.9333C9.33366 21.9333 6.0673 18.6664 6.06667 13.9997C6.06603 9.33303 9.333 6.06667 14 6.06667C18.667 6.06667 22.1409 9.33272 22.1409 13.9997C22.1409 18.6667 18.667 21.9333 14.0003 21.9333ZM22.4 7C21.7709 7 21.2591 6.4882 21.2591 5.85906C21.2591 5.22992 21.7709 4.71812 22.4 4.71812C23.0291 4.71812 23.5409 5.22992 23.5409 5.85906C23.5409 6.4882 23.0291 7 22.4 7ZM14.0003 8.4C11.2 8.4 8.4 11.2 8.4 14C8.4 16.8 10.2667 19.6 14 19.6C16.8 19.6 19.6 16.8 19.6 14C19.6 11.2 16.8007 8.4 14.0003 8.4ZM0.000635306 0V28H28.0006V0H0.000635306ZM28.0006 22.4C28.0006 25.0044 25.0051 28 22.4006 28H5.60064C2.9962 28 0.000635306 25.0044 0.000635306 22.4L0 5.6C0 2.99556 2.99556 0 5.6 0H22.4006C25.0051 0 28.0006 2.99556 28.0006 5.6V22.4ZM22.4006 2.33333H5.6C4.1193 2.33333 2.33333 4.1193 2.33333 5.6V22.4C2.33333 23.8807 4.1193 25.6667 5.6 25.6667H22.4C23.8807 25.6667 25.6667 23.8807 25.6667 22.4V5.6C25.6667 4.1193 23.8813 2.33333 22.4006 2.33333ZM14.0003 21.9333C9.33366 21.9333 6.0673 18.6664 6.06667 13.9997C6.06603 9.33303 9.333 6.06667 14 6.06667C18.667 6.06667 22.1409 9.33272 22.1409 13.9997C22.1409 18.6667 18.667 21.9333 14.0003 21.9333ZM22.4 7C21.7709 7 21.2591 6.4882 21.2591 5.85906C21.2591 5.22992 21.7709 4.71812 22.4 4.71812C23.0291 4.71812 23.5409 5.22992 23.5409 5.85906C23.5409 6.4882 23.0291 7 22.4 7ZM14.0003 8.4C11.2 8.4 8.4 11.2 8.4 14C8.4 16.8 10.2667 19.6 14 19.6C16.8 19.6 19.6 16.8 19.6 14C19.6 11.2 16.8007 8.4 14.0003 8.4ZM14.0003 8.4C11.2 8.4 8.4 11.2 8.4 14C8.4 16.8 10.2667 19.6 14 19.6C16.8 19.6 19.6 16.8 19.6 14C19.6 11.2 16.8007 8.4 14.0003 8.4ZM14.0003 8.4C11.2 8.4 8.4 11.2 8.4 14C8.4 16.8 10.2667 19.6 14 19.6C16.8 19.6 19.6 16.8 19.6 14C19.6 11.2 16.8007 8.4 14.0003 8.4ZM22.4006 2.33333H5.6C4.1193 2.33333 2.33333 4.1193 2.33333 5.6V22.4C2.33333 23.8807 4.1193 25.6667 5.6 25.6667H22.4C23.8807 25.6667 25.6667 23.8807 25.6667 22.4V5.6C25.6667 4.1193 23.8813 2.33333 22.4006 2.33333ZM14.0003 21.9333C9.33366 21.9333 6.0673 18.6664 6.06667 13.9997C6.06603 9.33303 9.333 6.06667 14 6.06667C18.667 6.06667 22.1409 9.33272 22.1409 13.9997C22.1409 18.6667 18.667 21.9333 14.0003 21.9333ZM22.4 7C21.7709 7 21.2591 6.4882 21.2591 5.85906C21.2591 5.22992 21.7709 4.71812 22.4 4.71812C23.0291 4.71812 23.5409 5.22992 23.5409 5.85906C23.5409 6.4882 23.0291 7 22.4 7ZM14.0003 8.4C11.2 8.4 8.4 11.2 8.4 14C8.4 16.8 10.2667 19.6 14 19.6C16.8 19.6 19.6 16.8 19.6 14C19.6 11.2 16.8007 8.4 14.0003 8.4ZM14.0003 8.4C11.2 8.4 8.4 11.2 8.4 14C8.4 16.8 10.2667 19.6 14 19.6C16.8 19.6 19.6 16.8 19.6 14C19.6 11.2 16.8007 8.4 14.0003 8.4ZM14.0003 8.4C11.2 8.4 8.4 11.2 8.4 14C8.4 16.8 10.2667 19.6 14 19.6C16.8 19.6 19.6 16.8 19.6 14C19.6 11.2 16.8007 8.4 14.0003 8.4ZM22.4006 2.33333H5.6C4.1193 2.33333 2.33333 4.1193 2.33333 5.6V22.4C2.33333 23.8807 4.1193 25.6667 5.6 25.6667H22.4C23.8807 25.6667 25.6667 23.8807 25.6667 22.4V5.6C25.6667 4.1193 23.8813 2.33333 22.4006 2.33333ZM14.0003 21.9333C9.33366 21.9333 6.0673 18.6664 6.06667 13.9997C6.06603 9.33303 9.333 6.06667 14 6.06667C18.667 6.06667 22.1409 9.33272 22.1409 13.9997C22.1409 18.6667 18.667 21.9333 14.0003 21.9333ZM22.4 7C21.7709 7 21.2591 6.4882 21.2591 5.85906C21.2591 5.22992 21.7709 4.71812 22.4 4.71812C23.0291 4.71812 23.5409 5.22992 23.5409 5.85906C23.5409 6.4882 23.0291 7 22.4 7ZM14.0003 8.4C11.2 8.4 8.4 11.2 8.4 14C8.4 16.8 10.2667 19.6 14 19.6C16.8 19.6 19.6 16.8 19.6 14C19.6 11.2 16.8007 8.4 14.0003 8.4Z"/>
</mask>
<path d="M14.0003 -10.6C6.42132 -10.6 0.432221 -7.00209 -3.28473 -3.28529C-7.00155 0.431391 -10.6 6.42055 -10.6 14H27.4C27.4 18.7795 25.2016 21.9686 23.5848 23.5853C21.9679 25.2021 18.779 27.4 14.0003 27.4V-10.6ZM-10.6 14C-10.6 19.4483 -8.80529 25.5178 -4.40078 30.4729C0.314559 35.7777 6.97754 38.6 14 38.6V0.6C17.2891 0.6 21.1521 2.02233 24.0008 5.22709C26.5386 8.08216 27.4 11.3517 27.4 14H-10.6ZM14 38.6C21.5794 38.6 27.5685 35.0016 31.285 31.285C35.0016 27.5685 38.6 21.5794 38.6 14H0.599999C0.599999 9.2206 2.7984 6.03155 4.41497 4.41497C6.03154 2.7984 9.2206 0.6 14 0.6V38.6ZM38.6 14C38.6 6.42202 35.003 0.433109 31.2861 -3.28424C27.5691 -7.00167 21.5798 -10.6 14.0003 -10.6V27.4C9.22118 27.4 6.03171 25.2017 4.41447 23.5842C2.79731 21.9669 0.599999 18.778 0.599999 14H38.6ZM22.4006 -16.6667H5.6V21.3333H22.4006V-16.6667ZM5.6 -16.6667C-2.08748 -16.6667 -7.45377 -12.5935 -10.0236 -10.0236C-12.5935 -7.45376 -16.6667 -2.08748 -16.6667 5.6H21.3333C21.3333 8.95709 20.3604 11.5222 19.5799 13.0607C18.7655 14.6661 17.787 15.9059 16.8464 16.8464C15.9059 17.787 14.6661 18.7655 13.0607 19.5799C11.5222 20.3604 8.95709 21.3333 5.6 21.3333V-16.6667ZM-16.6667 5.6V22.4H21.3333V5.6H-16.6667ZM-16.6667 22.4C-16.6667 30.0875 -12.5935 35.4538 -10.0236 38.0236C-7.45377 40.5935 -2.08748 44.6667 5.6 44.6667V6.66667C8.95709 6.66667 11.5222 7.63958 13.0607 8.4201C14.6661 9.23448 15.9059 10.213 16.8464 11.1536C17.787 12.0941 18.7655 13.3339 19.5799 14.9393C20.3604 16.4778 21.3333 19.0429 21.3333 22.4H-16.6667ZM5.6 44.6667H22.4V6.66667H5.6V44.6667ZM22.4 44.6667C30.0875 44.6667 35.4538 40.5935 38.0236 38.0236C40.5935 35.4538 44.6667 30.0875 44.6667 22.4H6.66667C6.66667 19.0429 7.63958 16.4778 8.4201 14.9393C9.23448 13.3339 10.213 12.0941 11.1536 11.1536C12.0941 10.213 13.3339 9.23448 14.9393 8.4201C16.4778 7.63958 19.0429 6.66667 22.4 6.66667V44.6667ZM44.6667 22.4V5.6H6.66667V22.4H44.6667ZM44.6667 5.6C44.6667 -2.08516 40.596 -7.45095 38.0256 -10.0219C35.4556 -12.5926 30.0891 -16.6667 22.4006 -16.6667V21.3333C19.0433 21.3333 16.4779 20.3603 14.9387 19.5793C13.3329 18.7646 12.0928 17.7856 11.1522 16.8447C10.2115 15.9038 9.23319 14.6638 8.41912 13.0586C7.63886 11.5201 6.66667 8.95576 6.66667 5.6H44.6667ZM14.0003 2.93333C16.2189 2.93333 19.2255 3.78806 21.7191 6.28184C24.2124 8.77528 25.0664 11.7806 25.0667 13.9971L-12.9333 14.0023C-12.9324 20.8854 -10.445 27.8576 -5.15165 33.1512C0.142003 38.4451 7.11508 40.9333 14.0003 40.9333V2.93333ZM25.0667 13.9971C25.067 16.2163 24.2122 19.2242 21.7174 21.7188C19.223 24.213 16.2166 25.0667 14 25.0667V-12.9333C7.11639 -12.9333 0.143012 -10.4465 -5.15151 -5.1524C-10.4464 0.142042 -12.9343 7.11638 -12.9333 14.0023L25.0667 13.9971ZM14 25.0667C11.8358 25.0667 9.01424 24.2571 6.63262 21.9607C4.19067 19.6062 3.14094 16.5702 3.14094 13.9997H41.1409C41.1409 -1.80761 28.5016 -12.9333 14 -12.9333V25.0667ZM3.14094 13.9997C3.14094 11.4294 4.19048 8.39408 6.63172 6.03992C9.01285 3.74371 11.8346 2.93333 14.0003 2.93333V40.9333C28.5041 40.9333 41.1409 29.8046 41.1409 13.9997H3.14094ZM22.4 -12C32.2643 -12 40.2591 -4.0052 40.2591 5.85906H2.25906C2.25906 16.9816 11.2774 26 22.4 26V-12ZM40.2591 5.85906C40.2591 15.7233 32.2642 23.7181 22.4 23.7181V-14.2819C11.2775 -14.2819 2.25906 -5.26351 2.25906 5.85906H40.2591ZM22.4 23.7181C12.5358 23.7181 4.54094 15.7233 4.54094 5.85906H42.5409C42.5409 -5.26351 33.5225 -14.2819 22.4 -14.2819V23.7181ZM4.54094 5.85906C4.54094 -4.0052 12.5357 -12 22.4 -12V26C33.5226 26 42.5409 16.9816 42.5409 5.85906H4.54094ZM0.000635306 0V-38H-37.9994V0H0.000635306ZM0.000635306 28H-37.9994V66H0.000635306V28ZM28.0006 28V66H66.0006V28H28.0006ZM28.0006 0H66.0006V-38H28.0006V0ZM0.000635306 22.4H38.0006V22.3986L0.000635306 22.4ZM0 5.6H-38V5.60144L0 5.6ZM-37.9994 0V28H38.0006V0H-37.9994ZM0.000635306 66H28.0006V-10H0.000635306V66ZM66.0006 28V0H-9.99937V28H66.0006ZM28.0006 -38H0.000635306V38H28.0006V-38ZM-9.99937 22.4C-9.99937 10.1828 -3.87284 2.48669 -0.692761 -0.693393C2.48732 -3.87347 10.1834 -10 22.4006 -10V66C37.2223 66 47.7184 58.3757 53.0474 53.0467C58.3763 47.7178 66.0006 37.2216 66.0006 22.4H-9.99937ZM22.4006 -10H5.60064V66H22.4006V-10ZM5.60064 -10C17.8178 -10 25.514 -3.87347 28.694 -0.693394C31.8741 2.48669 38.0006 10.1828 38.0006 22.4H-37.9994C-37.9994 37.2216 -30.3751 47.7178 -25.0461 53.0467C-19.7171 58.3757 -9.22101 66 5.60064 66V-10ZM38.0006 22.3986L38 5.59856L-38 5.60144L-37.9994 22.4014L38.0006 22.3986ZM38 5.6C38 17.8172 31.8735 25.5133 28.6934 28.6934C25.5133 31.8735 17.8172 38 5.6 38V-38C-9.22165 -38 -19.7178 -30.3757 -25.0467 -25.0467C-30.3757 -19.7177 -38 -9.22165 -38 5.6H38ZM5.6 38H22.4006V-38H5.6V38ZM22.4006 38C10.1834 38 2.48732 31.8735 -0.692761 28.6934C-3.87284 25.5133 -9.99937 17.8172 -9.99937 5.6H66.0006C66.0006 -9.22165 58.3763 -19.7177 53.0474 -25.0467C47.7184 -30.3757 37.2223 -38 22.4006 -38V38ZM-9.99937 5.6V22.4H66.0006V5.6H-9.99937Z" fill="white" mask="url(#path-1-outside-1)"/>
</g>
<defs>
<clipPath id="clip0">
<rect width="28" height="28" fill="white"/>
</clipPath>
</defs>
</svg>
